<?xml version="1.0" encoding="UTF-8"?>
<!DOCTYPE svg PUBLIC "-//W3C//DTD SVG 1.1//EN" "http://www.w3.org/Graphics/SVG/1.1/DTD/svg11.dtd">
<!-- Creator: CorelDRAW X8 -->
<svg xmlns="http://www.w3.org/2000/svg" xml:space="preserve" width="210mm" height="297mm" version="1.1" style="shape-rendering:geometricPrecision; text-rendering:geometricPrecision; image-rendering:optimizeQuality; fill-rule:evenodd; clip-rule:evenodd"
viewBox="0 0 21000 29700"
 xmlns:xlink="http://www.w3.org/1999/xlink">
 <defs>
  <style type="text/css">
   <![CDATA[
    .fil0 {fill:black}
   ]]>
  </style>
 </defs>
 <g id="Camada_x0020_1">
  <metadata id="CorelCorpID_0Corel-Layer"/>
  <g id="_2448027748400">
   <path class="fil0" d="M5734 16865l0 0zm381 -1012l-17 17 17 -17zm17 -16l-17 16 17 -16zm0 0l0 0zm-83 -67l0 0zm0 0l0 0zm215 -149l-16 17 16 -17zm17 -17l-17 17 17 -17zm17 -16l-17 16 17 -16zm16 -17l-16 17 16 -17zm17 -16l-17 16 17 -16zm16 -17l-16 17 16 -17zm17 -17l-17 17 17 -17zm16 -16l-16 16 16 -16zm0 0l0 0zm50 -33l0 0zm17 -17l-17 17 17 -17zm16 -17l-16 17 16 -17zm0 0l0 0zm1344 -696l5 5c-1,-1 -7,-3 -5,-5zm3350 -1957l-16 16 16 -16zm17 -17l-17 17 17 -17zm0 0l0 0zm-514 -249l0 0zm0 0c19,-83 194,-309 248,-381 48,-64 89,-110 140,-176 40,-51 105,-141 159,-156l48 36c-39,164 -475,597 -595,677zm-3865 1294c49,-74 118,-132 192,-189 73,-57 136,-121 206,-176 71,-55 139,-110 212,-170l1155 -785c86,-51 162,-80 249,-132 86,-52 172,-80 258,-124 521,-263 1242,-481 1841,-481 -14,52 -118,171 -156,226 -57,82 -97,145 -149,232 -82,134 -138,258 -170,410 -20,92 -9,66 -94,106 -593,279 -981,490 -1630,675 -695,199 -824,249 -1558,366 -60,9 -129,16 -176,23 -73,10 -103,19 -180,19zm-697 -2405l5 5c0,0 -6,-3 -5,-5zm67 -16l5 4c-1,0 -7,-3 -5,-4zm66 -17l5 5c0,0 -6,-3 -5,-5zm67 -17l4 5c0,0 -6,-3 -4,-5zm82 -16c18,-18 63,26 19,8 0,0 -46,20 -19,-8zm747 -17l5 5c-1,0 -7,-3 -5,-5zm-664 0c8,-8 94,9 30,9 0,0 -2,0 -2,0 -15,-4 -56,19 -28,-9zm100 -16l0 0zm99 -17l0 0zm100 -17l0 0zm116 -16l0 0zm216 -133l116 0 0 17 -116 0 0 -17zm4561 216c48,-72 85,-81 145,-137 167,-156 440,-370 631,-497l340 -223c541,-321 1252,-653 1919,-653 103,0 168,31 249,50 -22,81 -123,189 -178,254 -121,144 -75,93 -224,224 -225,196 -487,297 -770,424 -484,215 -1570,558 -2112,558zm-216 -1841l5 5c0,-1 -7,-4 -5,-5zm100 -17c19,-19 94,28 20,7 -2,-1 -49,22 -20,-7zm464 -132l5 4c0,0 -7,-3 -5,-4zm-5125 1907c94,-2 62,-23 150,-32 125,-14 205,-45 331,-51 69,-4 118,-7 149,-50l-116 -33c-137,0 -313,3 -443,21 -152,22 -124,-18 -417,31 -85,14 -195,55 -289,55 -76,-1 -6,-20 -82,-11 -186,21 -685,220 -858,319 -384,220 -811,856 -846,1311 -22,294 16,558 168,792 60,92 149,179 225,256 76,76 176,153 275,206 131,70 222,91 372,110 140,17 252,61 419,61 -171,256 -320,360 -547,780 -212,390 -233,629 -233,1094 -91,-61 -195,-220 -270,-310 -23,-27 -30,-31 -54,-61 -136,-174 -507,-603 -658,-752l-788 -855c-308,-320 -623,-622 -937,-936l-975 -900c-138,93 -408,462 -497,630 68,102 505,434 625,536l275 239c39,40 50,42 90,76 289,242 883,798 1145,1061l349 331c117,118 222,223 340,340l571 590c36,43 41,57 84,99 255,254 486,534 730,795l231 267c188,222 819,938 917,1123 173,0 365,-34 538,-59 180,-26 355,-50 527,-71 357,-44 724,-80 1077,-116 186,-20 372,-16 555,-43l554 -43c173,-9 406,-1 571,-26l573 -24c434,2 716,-16 1145,-16l879 16c120,0 180,16 281,18 208,2 377,4 581,15 72,4 61,13 133,17 48,3 101,-3 149,0 72,4 61,13 133,17l976 69c66,6 199,29 268,30 52,-226 104,-448 131,-681 12,-100 18,-149 18,-264l-573 -24c-342,-51 -1972,-43 -2363,-10 -88,7 -208,1 -298,0l-1443 84c-378,5 -725,74 -1095,98 -352,24 -737,82 -1081,131 -361,51 -696,100 -1051,159 -193,32 -897,133 -1019,192l-275 -372c-99,-131 -407,-501 -471,-623 88,7 176,84 480,83 344,-2 659,-53 958,-171l400 -163c117,-48 262,-123 375,-190 333,-198 333,-174 643,-484 371,-370 406,-964 142,-1228 -105,-105 -224,-166 -377,-187 -500,-68 -929,86 -1345,332l-319 245c-59,44 -102,79 -157,125 -62,50 -110,80 -154,145l0 17 -16 16c-28,42 -66,58 -104,95 -45,43 -53,65 -91,108 -56,63 -165,130 -187,212l0 17c-22,83 -44,32 -66,116 57,-39 114,-98 159,-157 47,-60 96,-138 173,-158l0 16 0 17 -17 16 -33 50 0 17 -17 16 -16 17 -17 0c-42,28 -52,28 -66,83l16 0 -16 16 -17 17 -16 16 -17 0c-26,20 -154,215 -166,266 77,-56 80,-124 198,-200 71,-45 271,-278 428,-402 57,-44 29,-13 90,-43 32,-15 50,-33 78,-54 284,-214 686,-430 1052,-491 209,-34 419,-122 732,-11 456,161 287,295 205,418 -50,75 -61,94 -125,157 -224,221 -376,293 -641,453l-380 184c-284,142 -973,357 -1336,318 -145,-15 -338,-65 -453,-111 -125,-50 -244,-125 -322,-225 -76,-97 -166,-236 -105,-406 112,-307 195,-470 387,-724l495 -617c228,-247 165,-146 370,-177 168,-25 358,-10 531,-33 1151,-160 2342,-551 3357,-1088 154,658 955,578 1429,433 245,-74 657,-271 858,-419 282,-207 496,-389 484,-811 -2,-77 -16,-147 -44,-205 -19,-39 -26,-50 -51,-81 -208,-262 -592,-202 -888,-115 -307,90 -733,383 -923,620 -87,109 -148,125 -251,280l0 16 -17 17c-26,39 -20,17 -33,66l150 -133c-20,74 -57,67 -95,121 -33,48 -8,19 -32,68 -24,51 -23,15 -39,77 187,-126 317,-334 516,-446 27,-15 43,-27 71,-45 50,-34 82,-50 133,-83l270 -161c260,-114 781,-236 1044,-39 128,96 41,187 -27,276 -188,247 -736,536 -1076,649 -225,75 -481,150 -731,130 -254,-21 -503,-101 -598,-281 62,-93 209,-184 294,-270l275 -289c88,-105 162,-215 221,-342 91,-195 72,-285 72,-476 115,-27 342,-26 484,-47 436,-63 875,-176 1280,-312 283,-94 502,-189 762,-300 239,-102 486,-220 671,-406 48,-49 84,-85 133,-133 122,-121 274,-320 299,-497 60,-423 -165,-541 -556,-490 -151,20 -311,43 -452,79 -304,76 -509,169 -782,279 -444,180 -1233,728 -1586,1085 -52,53 -89,71 -141,124 -75,75 -181,209 -265,267 -75,51 -128,-6 -212,-13 -356,-31 -674,45 -969,-375 -37,-54 -79,-111 -90,-177 -20,-135 87,-304 140,-384 88,-132 137,-181 243,-288 191,-193 433,-285 691,-371 65,-22 135,-46 205,-60 90,-19 114,-41 210,-56 74,-11 161,-19 235,-30l228 -37c155,-16 330,-47 500,-47l0 -33c-216,0 -391,-14 -597,-1 -92,5 -131,17 -215,17l0 -16c87,0 490,-100 597,-100l0 -16c-97,0 -195,-22 -262,-15l-532 33c-392,68 -778,135 -1077,400l-140 141c-314,322 -469,926 -198,1317 45,65 99,109 136,164 -63,29 -240,63 -326,88 -120,35 -201,61 -312,104l-592 253c-90,37 -199,89 -279,136l-532 313c-341,204 -657,462 -964,712 -78,63 -153,143 -230,201l-641 620c-159,63 -923,-67 -1095,-144 -241,-108 -319,-182 -467,-378 -173,-230 -184,-350 -58,-601 53,-104 90,-174 155,-260 220,-290 345,-429 669,-591 91,-46 192,-104 278,-136 175,-66 606,-168 723,-223l33 -17c35,-13 241,-24 414,-67 133,-33 454,-60 586,-60l-33 -67 199 -16c-219,0 -411,-25 -625,5 -38,5 -116,19 -167,8l-25 -8c-3,-1 -8,-3 -12,-5z"/>
   <path class="fil0" d="M15237 16168l0 0zm17 -16l-17 16 17 -16zm0 0l0 0zm1443 -34l5 5c-1,0 -7,-3 -5,-5zm-1393 0l0 0zm16 -16l-16 16 16 -16zm0 0l0 0zm-33 -17l0 0zm17 -16l-17 16 17 -16zm0 0l0 0zm1890 -33l5 5c0,-1 -6,-4 -5,-5zm-1857 0l5 5c-1,-1 -7,-4 -5,-5zm-50 -50l0 0zm1941 -17l4 5c0,0 -6,-3 -4,-5zm-1924 0l-17 17 17 -17zm-1311 -149l-16 17 16 -17zm17 -17l-17 17 17 -17zm16 -16l-16 16 16 -16zm0 -17l0 0zm0 17l0 -17c1,0 33,-33 34,-33l16 0 17 0 -17 17c-25,35 -2,21 -50,33zm67 -50l0 0zm50 -33l0 0zm0 0l0 -17 0 17zm0 -33l0 16 0 -16zm0 0l0 0zm-199 99l49 0c-41,61 -81,45 -16,67 -83,71 -46,36 -67,132 104,-55 18,21 162,-87 57,-43 45,-11 183,-98 66,-42 297,-198 352,-213 -109,162 -622,578 -646,865 -3,44 8,78 8,99 3,111 -54,106 74,297 492,0 762,-149 1148,-461l113 -120c0,94 -67,387 176,521 185,102 443,5 589,-54 164,-66 334,-165 449,-280 43,-43 62,-47 101,-83 61,-57 25,-59 75,-106 41,-39 74,-26 94,-92 10,-33 8,-48 -7,-67 -24,-33 -1,-1 -51,-21 70,-105 26,-59 50,-116l-303 129c-109,74 -175,118 -300,180 -168,84 -584,282 -724,72 56,-211 441,-514 654,-640 126,-75 309,-144 457,-189 256,-78 330,-67 564,-67 -39,74 -144,181 -204,261 -33,45 -76,91 -94,139 -42,109 24,46 -7,173 -43,170 160,300 406,158 69,-39 106,-31 115,-133 -94,38 -106,-3 -116,-17 145,-12 -11,-25 82,-81 56,-33 4,28 50,-35l-232 0c23,-100 125,-169 165,-333 26,-106 33,-360 -22,-441 -56,-85 -264,-112 -377,-91 -538,96 -963,212 -1336,671 -129,158 -51,124 -254,260 -17,-49 11,-37 -40,-10l-179 123c-91,55 -177,79 -266,133 -83,51 -174,96 -262,136 -106,47 -193,54 -315,83 132,-250 431,-470 577,-618l747 -695c217,-173 56,-119 325,-157 171,-23 409,-12 458,-39l28 -22c49,-41 57,-67 71,-128l-44 -22c-64,-38 -15,11 -56,-44 53,-1 24,1 53,-14 149,-76 -44,1 47,-36l0 -33c-126,-34 24,-83 -199,-83 26,-99 234,-195 293,-272 56,-74 26,-137 31,-220 10,-171 -16,-107 -75,-188 -58,39 -101,54 -167,82 -201,87 -579,371 -769,508 -174,126 -127,106 -408,106l-57 99c-11,38 24,61 41,84 -137,92 -849,616 -953,739 -38,45 -23,29 -69,64 -95,71 -43,62 -80,104 -49,56 -84,23 -92,121z"/>
   <path class="fil0" d="M13562 16235l5 5c0,-1 -7,-4 -5,-5zm133 -83l0 0zm16 -17l-16 17 16 -17zm34 -17l-34 17 34 -17zm16 -16l17 0 0 16 -17 0 -16 0 16 -16zm66 -17l0 0zm-2935 -298l-17 16 17 -16zm0 0l0 0zm50 -33l0 0zm-100 16l0 0zm116 -33l-16 17 16 -17zm0 0l0 0zm50 -33l0 0zm0 0l0 0zm-83 -50l0 0zm0 0c-37,55 -26,28 -72,65 -48,39 -69,32 -11,51l0 33 33 0 -74 93c-103,99 34,-38 -42,106 81,-21 169,-102 292,-144 2,-1 7,-3 10,-4l582 -311c138,-64 215,-71 410,-71 -107,201 -548,417 -794,599 -34,26 -62,42 -99,67l-404 292c-70,56 -68,103 -62,202 6,107 -7,135 32,216 100,-8 827,-477 925,-568 89,-84 179,-145 282,-215 57,-38 98,-57 156,-92 56,-34 96,-62 157,-92 274,-138 786,-451 1102,-392 51,10 82,-6 -31,119l-532 463c-51,42 -87,77 -135,114 -105,81 -184,123 -183,314 0,68 -14,184 9,242 21,54 81,90 146,102 247,44 555,-125 731,-253 66,-48 257,-175 292,-223l0 -16 184 -164c30,-36 11,-38 65,-52l0 -50c-53,12 -26,17 -67,0 -28,-69 41,-38 67,-132 -121,28 -136,78 -216,99 -21,30 -11,12 -39,17l-303 155c-76,39 -137,51 -211,87 -75,37 -112,81 -210,89 42,-62 124,-81 245,-203 167,-168 328,-263 390,-522 41,-173 37,-601 -286,-603 -258,-1 -493,138 -695,220 -91,36 -229,126 -317,146 0,-196 -57,-332 -202,-379 -245,-77 -694,227 -890,366 -66,46 -149,169 -252,196l17 33z"/>
   <path class="fil0" d="M16946 12835l0 0zm2388 -349l0 115c-47,264 -421,396 -657,456 -369,94 -329,27 -537,10 -47,70 -100,95 -100,215 304,71 477,-16 773,-139l447 -209c98,-24 43,21 42,58 -1,38 -9,-6 6,28 17,38 25,24 26,9l0 -5c-1,-13 -7,-22 -17,10 -63,218 -882,662 -1237,540 -204,-70 -147,-332 -139,-424 -189,216 -712,543 -930,432 -79,-40 -75,-161 -65,-283 17,-225 322,-452 431,-614 -76,20 -246,163 -296,184l-29 8c-87,27 -37,48 -140,57 -13,-65 -9,-50 34,-99l-34 -17c66,-137 85,-125 195,-237 125,-127 689,-500 686,-552 -1,-8 -3,-8 -5,-19 -1,-3 -3,-8 -4,-12 -11,-44 -18,-25 41,-92 196,0 181,0 298,-83 105,-75 561,-399 681,-417l16 2c27,11 51,-29 51,149 0,234 -110,148 -234,332 49,1 62,0 93,25 58,47 9,65 26,131 55,209 -255,136 -454,172 -94,17 -66,19 -129,70l-526 486c-53,52 -460,414 -486,509 223,-5 534,-223 734,-328 5,-2 49,-4 82,-45l32 -41c147,-95 67,-63 178,-152 62,-50 113,-94 185,-131 147,-75 280,-135 458,-188 165,-49 438,-137 491,36 6,18 10,36 13,53zm-746 299l-33 19 33 -19zm-1195 -116l-16 16 16 -16zm1195 116c3,-3 8,-10 10,-6l174 -75c59,-22 141,-50 214,-52 -22,19 -1,6 -41,26 -80,40 -269,107 -357,107zm-1195 -116l0 0zm1593 -17l32 -19 -32 19z"/>
   <path class="fil0" d="M6928 18457l1327 -17c691,0 1392,32 2057,33 330,1 983,63 1327,66 73,1 242,15 321,27l1585 156c33,-66 115,-323 117,-414 -62,-30 -457,-77 -564,-84 -93,-6 -206,-25 -299,-32 -666,-45 -1183,-65 -1874,-67l-2986 182c-103,6 -172,20 -253,29l-646 84c-88,10 -73,-17 -112,37z"/>
   <path class="fil0" d="M10046 16118l0 0zm16 -16l-16 16 16 -16zm17 -17l-17 17 17 -17zm448 -49c18,-18 63,26 18,8 0,0 -46,19 -18,-8zm33 -67c18,-17 63,27 19,9 -1,0 -47,19 -19,-9zm-448 0l0 0zm-33 116c-19,-46 1,-50 50,-83l-17 -33c-19,-58 17,-31 -48,-5l-29 12c-15,5 -16,4 -36,14 -40,22 -36,26 -74,41 -47,19 -53,13 -95,38 -100,60 -124,93 -293,188 -185,103 -352,170 -570,161 -162,-7 -197,-74 -119,-187 23,-34 43,-68 67,-99 45,-56 112,-113 165,-167 268,-272 700,-459 1089,-520 145,-22 144,-7 292,-7 -14,52 -60,96 -96,137 -244,278 -190,235 -202,462 -13,233 256,205 346,164 223,-103 133,-60 184,-165 -66,0 -68,5 -116,16 29,-80 8,9 44,-50 23,-37 15,23 -11,-49 60,-14 53,-10 83,-50l-232 0c120,-229 234,-316 180,-678 -41,-275 -458,-181 -643,-149 -595,102 -1055,459 -1296,943 -137,274 -125,889 409,790 316,-59 659,-255 865,-479 46,-50 46,-66 101,-114 37,-33 36,-11 47,-68 21,-101 -30,5 5,-79 -44,11 -14,-2 -50,16z"/>
   <path class="fil0" d="M16199 13249l-32 19 32 -19zm-1592 -381l0 16c-63,60 -7,19 -33,83 90,-21 77,-26 144,-71 79,-54 58,-14 148,-68 116,-70 473,-272 606,-257 59,6 45,-6 33,34 -27,92 -346,271 -434,329l-509 353c-40,40 -46,104 -46,157 1,129 6,74 25,153 147,-3 803,-508 965,-610 198,-125 558,-323 797,-381 406,-98 94,137 -50,266l-217 180c-41,33 -67,57 -110,90 -43,34 -70,54 -85,114 -143,564 407,307 633,169 118,-72 224,-174 327,-271 37,-36 68,-64 95,-104l-21 -8c-10,-6 -7,5 -29,-25l0 -17 57 -59c2,-1 6,-4 9,-7 -132,11 -69,22 -162,56 -55,20 16,-12 -36,12l-138 77c-90,40 -259,143 -377,170 47,-69 223,-162 332,-315 109,-151 167,-339 89,-520 -118,-272 -507,-51 -710,32 -120,49 -150,89 -225,107 0,-422 -383,-277 -602,-155 -120,66 -244,174 -351,263 -57,48 -142,129 -125,207z"/>
   <path class="fil0" d="M5949 18142c-43,-163 -747,-927 -862,-1078 -116,-152 -915,-957 -1064,-1076 -40,-31 -65,-61 -101,-98 -37,-36 -63,-65 -100,-99 -42,-40 -65,-48 -108,-91 -33,-33 -56,-61 -92,-91 -47,-40 -61,-46 -107,-92l-634 -543c-66,18 -165,106 -212,153 -34,35 -56,58 -91,92 -45,43 -73,50 -79,120 53,14 75,39 114,69l1671 1265c75,59 135,114 208,173 235,190 514,458 730,630l516 479c80,80 117,124 211,187z"/>
   <path class="fil0" d="M12401 14261l4 18c-5,40 -7,24 -37,81 51,-13 108,-56 149,-83 53,-34 95,-44 155,-77 113,-64 185,-122 359,-122 -80,120 -287,260 -421,342 -271,164 -343,169 -292,388 72,-6 270,-146 339,-192 230,-154 801,-521 1071,-521 -29,44 -61,74 -107,109l-371 276c-48,32 -80,53 -130,85 -62,41 -75,46 -75,145 0,172 64,91 232,-21 306,-204 808,-577 1181,-577 -18,64 -54,75 -140,142 -69,53 -294,208 -325,272 -56,112 -83,455 410,194 73,-39 276,-211 320,-277l-66 0 49 -66c-91,8 -313,213 -547,232 41,-61 330,-233 383,-364 24,-59 29,-167 17,-217 -81,-326 -522,26 -698,67 0,-105 5,-174 -77,-205 -82,-32 -179,4 -239,22 -132,41 -281,121 -398,183 -26,-322 -164,-249 -365,-149l-283 197c-3,2 -6,6 -9,8 -61,56 -52,39 -89,110z"/>
   <path class="fil0" d="M12998 13216c0,681 768,237 975,30 79,-80 135,-138 136,-212 -44,-12 -13,1 -49,-17 11,-16 100,-91 0,-71 -3,0 -8,2 -10,2l-176 82c-226,137 -498,341 -760,203 57,-244 514,-543 803,-624 143,-40 248,-56 425,-56 -16,56 -82,121 -117,165 -110,141 -99,106 -99,299 0,138 168,148 259,110 129,-53 118,-82 139,-127 -65,2 -39,-4 -83,17 11,-29 12,-26 14,-30l69 -86c-56,-12 -77,0 -166,0 50,-185 133,-59 133,-448 0,-407 -794,-107 -1062,83 -185,131 -431,367 -431,680z"/>
   <path class="fil0" d="M11771 14576l0 0zm-216 17l0 0zm-580 -299l0 0zm0 0c-41,61 -38,15 -17,66 74,-17 53,-33 116,-49 -148,222 -215,71 -215,447 119,81 210,62 370,-10l326 -155c0,129 -31,231 99,234 204,6 503,-258 545,-304 39,-42 57,-49 103,-80 -48,-131 12,-38 -17,-99 -87,7 -18,0 -64,18 -12,5 -55,26 -67,33l-239 126c-49,26 -84,50 -144,55 73,-110 295,-278 409,-370 200,-161 155,-113 138,-310 -135,11 -810,588 -1277,697 38,-58 98,-114 156,-159l366 -298c44,-33 64,-34 75,-92 9,-54 -1,-116 -16,-148 -54,-50 -372,98 -480,184 -3,2 -7,5 -9,7l-91 76c-123,115 -112,116 -67,131z"/>
   <path class="fil0" d="M5866 16019c44,-29 35,-8 50,-66 -43,29 -34,8 -50,66z"/>
   <path class="fil0" d="M13944 15770c-48,12 -25,-2 -50,33 48,-11 24,2 50,-33z"/>
   <polygon class="fil0" points="13778,16118 13778,16102 13761,16102 13761,16118 "/>
   <polygon class="fil0" points="13678,16052 13678,16036 13659,16049 "/>
   <polygon class="fil0" points="5966,15837 5949,15837 5963,15856 "/>
   <polygon class="fil0" points="12401,14261 12384,14261 12398,14280 "/>
   <polygon class="fil0" points="5866,16019 5850,16019 5864,16038 "/>
   <polygon class="fil0" points="10958,12967 10942,12967 10955,12987 "/>
   <polygon class="fil0" points="10809,15803 10792,15803 10806,15823 "/>
   <polygon class="fil0" points="5949,18142 5949,18159 5969,18145 "/>
   <polygon class="fil0" points="10958,13083 10942,13083 10955,13103 "/>
   <polygon class="fil0" points="14706,14377 14723,14377 14709,14358 "/>
   <polygon class="fil0" points="10958,14360 10942,14360 10955,14380 "/>
   <polygon class="fil0" points="6082,15886 6082,15870 6065,15886 "/>
   <polygon class="fil0" points="6380,15389 6380,15372 6364,15389 "/>
   <polygon class="fil0" points="14076,15754 14076,15737 14060,15737 "/>
   <polygon class="fil0" points="6165,15787 6165,15770 6148,15787 "/>
   <polygon class="fil0" points="6198,15754 6198,15737 6181,15754 "/>
   <polygon class="fil0" points="6065,15903 6065,15886 6049,15903 "/>
   <polygon class="fil0" points="6049,15919 6049,15903 6032,15919 "/>
   <polygon class="fil0" points="6181,15770 6181,15754 6165,15770 "/>
   <polygon class="fil0" points="11041,12851 11041,12835 11024,12851 "/>
   <polygon class="fil0" points="5982,15837 5982,15820 5966,15837 "/>
   <polygon class="fil0" points="6248,15671 6248,15654 6231,15671 "/>
   <polygon class="fil0" points="11024,12868 11024,12851 "/>
   <polygon class="fil0" points="14607,12884 14607,12868 "/>
   <polygon class="fil0" points="10991,12934 10975,12951 "/>
   <polygon class="fil0" points="10842,15803 10825,15803 "/>
   <polygon class="fil0" points="6231,15687 6231,15671 "/>
   <polygon class="fil0" points="13645,16351 13645,16367 "/>
   <polygon class="fil0" points="6364,15405 6364,15389 "/>
   <polygon class="fil0" points="10975,13067 10958,13083 "/>
   <polygon class="fil0" points="16846,13000 16846,13017 "/>
   <polygon class="fil0" points="10825,15803 10809,15803 "/>
   <polygon class="fil0" points="10975,12951 10958,12967 "/>
  </g>
 </g>
</svg>
