<?xml version="1.0" encoding="UTF-8"?>
<!DOCTYPE svg PUBLIC "-//W3C//DTD SVG 1.1//EN" "http://www.w3.org/Graphics/SVG/1.1/DTD/svg11.dtd">
<!-- Creator: CorelDRAW X8 -->
<svg xmlns="http://www.w3.org/2000/svg" xml:space="preserve" width="210mm" height="297mm" version="1.1" style="shape-rendering:geometricPrecision; text-rendering:geometricPrecision; image-rendering:optimizeQuality; fill-rule:evenodd; clip-rule:evenodd"
viewBox="0 0 21000 29700"
 xmlns:xlink="http://www.w3.org/1999/xlink">
 <defs>
  <style type="text/css">
   <![CDATA[
    .fil1 {fill:none}
    .fil0 {fill:black}
   ]]>
  </style>
 </defs>
 <g id="Camada_x0020_1">
  <metadata id="CorelCorpID_0Corel-Layer"/>
  <path class="fil0" d="M533 14500c164,110 314,263 470,384l346 294c151,144 321,260 470,405l448 406c52,53 75,60 128,107l437 416c51,51 63,56 116,98 150,119 1499,1468 1536,1515 124,155 283,288 419,435l1440 1611c245,264 475,557 702,835 128,158 286,314 381,494 335,0 1034,-126 1369,-167 462,-57 928,-102 1387,-150l1065 -88c61,-5 129,2 191,-1 92,-4 78,-16 170,-21l1111 -42c129,-2 207,-23 362,-22 550,2 910,-21 1472,-21l1131 21c155,-1 232,20 362,22l1111 42c92,5 77,17 170,21l1601 128c88,-379 128,-561 174,-956 13,-110 84,-256 -87,-263l-1112 -40c-154,1 -233,-21 -362,-22 -202,-1 -190,20 -322,-62 -650,-403 -852,-1080 -852,-1836 404,0 1067,-154 1067,-640 0,-72 -117,-145 -170,-172 -171,-88 -369,-38 -576,-20 -116,10 -180,21 -321,21l21 -2027c-181,-43 -359,-73 -549,-113 -124,-25 -151,-58 -246,21 -212,178 -144,178 -144,540 0,68 27,106 64,149 -54,149 -64,-73 -64,363l0 875c1,172 -21,254 -21,427 -313,7 -277,225 -277,448 0,70 34,56 90,80 547,241 196,725 522,1484 80,186 181,310 284,463 -400,0 -735,15 -1132,20 -119,2 -136,22 -254,23l-835 41c-369,30 -707,29 -1084,69 -1338,141 -2809,270 -4119,532 -160,31 -320,56 -488,89 -103,20 -418,64 -496,101 -165,-246 -361,-482 -539,-720 -66,-87 -124,-159 -187,-240 -303,-397 -610,-816 -944,-1190 -71,-80 -123,-151 -193,-234 -357,-424 -711,-854 -1087,-1260 -304,-329 -600,-665 -918,-981l-202 -225c-427,-425 -840,-872 -1291,-1269 -152,-134 -281,-287 -437,-417 -171,-143 -493,-496 -668,-613 -143,96 -597,672 -640,832z"/>
  <path class="fil0" d="M12846 16805c-46,-195 -26,-280 -276,-278 -354,2 -727,-96 -629,372 155,746 308,1733 307,2531 0,253 -39,316 113,442 141,118 208,145 425,117 582,-75 465,-139 465,-666 0,-769 12,-1055 216,-1747 18,-61 56,-169 62,-237l42 0c10,34 122,271 201,588 29,118 55,209 82,324 81,351 66,1287 336,1691 100,0 683,-107 683,-171 0,-949 -103,-2542 -752,-3281 -105,-120 -66,-112 -272,-112 -214,0 -421,61 -570,135 -235,117 -310,282 -433,292z"/>
  <path class="fil0" d="M9816 11598c-8,-352 -188,-277 -683,-277 -48,0 -288,66 -237,277 94,381 203,1024 257,1410 23,164 31,326 56,498 38,257 3,964 54,1056 33,60 257,216 339,216 181,0 611,-23 639,-236 94,-714 -155,-845 172,-2069 23,-85 84,-279 86,-363 96,26 102,90 157,248 39,112 67,204 94,312 190,749 101,724 230,1413 50,267 76,444 201,631 156,0 581,-101 683,-150 0,-558 -62,-1425 -183,-1950 -97,-418 -220,-810 -448,-1152 -224,-336 -201,-291 -478,-291 -302,0 -529,134 -735,290 -73,54 -100,129 -204,137z"/>
  <path class="fil0" d="M10307 17659c37,-14 67,31 65,-191l-3 -558c4,-113 23,-139 130,-148 0,423 147,926 113,1138 -18,115 -49,269 -49,377l-128 0c0,-135 -86,-524 -128,-618zm-875 -43c0,543 85,1038 474,1403 78,74 281,197 422,197 1587,0 1248,-2078 825,-2959l-135 -270c-355,-664 -331,-431 -484,-409 -74,10 -92,-53 -163,-53 -113,0 -201,32 -312,51 -150,27 -181,21 -271,113 -117,118 -195,337 -234,534 -81,407 -122,894 -122,1393z"/>
  <path class="fil0" d="M18714 16805c0,643 156,791 92,1223 -12,81 -15,120 -24,189 -15,119 -6,103 -132,103 -28,-120 -42,-251 -69,-379 -6,-30 -48,-160 -50,-184 -10,-96 35,-48 53,-164 15,-97 2,-335 2,-447 0,-276 -39,-337 128,-341zm-1067 619c0,522 -23,879 221,1337 63,120 155,236 260,316 93,69 270,182 415,182 724,0 1153,-488 1153,-1195 0,-723 -45,-1151 -349,-1807l-398 -690c-124,0 -107,17 -193,45 -117,39 -105,-45 -148,-45 -113,0 -490,63 -578,127 -321,233 -383,1323 -383,1730z"/>
  <path class="fil0" d="M12419 10062c0,108 -18,361 21,449 13,31 26,43 43,63 -42,117 -64,16 -64,107l0 1557c-326,8 -277,236 -277,449 0,144 433,39 427,639 -6,612 220,1125 613,1521 123,124 534,422 667,422 66,0 388,-192 619,-192l0 -321c-133,-11 -383,-180 -473,-252 -472,-382 -637,-991 -637,-1647 0,-89 100,-55 329,-97 334,-62 717,-198 717,-607 0,-66 -109,-127 -164,-157 -108,-59 -148,-58 -269,-42l-613 50 0 -1985c0,-81 -79,-65 -244,-98 -108,-21 -178,-35 -284,-57 -104,-21 -171,-60 -256,10 -44,37 -155,127 -155,188z"/>
  <path class="fil0" d="M7276 12452c109,-29 64,-231 64,-491 0,-382 -35,-340 128,-427 0,281 159,984 136,1137 -20,132 -50,269 -50,400l-150 0c0,-158 -78,-515 -128,-619zm-853 -406c0,489 -22,1044 214,1451 33,56 65,114 111,166 65,73 72,87 149,150 304,251 508,235 889,109 1070,-353 670,-2252 279,-3005l-289 -480c-44,-61 -55,-52 -73,-119 -113,9 -148,64 -235,64 -97,0 -17,-89 -250,-38 -91,19 -205,36 -304,60 -438,103 -491,1230 -491,1642z"/>
  <path class="fil0" d="M14446 11918c0,284 13,136 154,231 155,104 140,352 188,644 122,746 483,1921 1408,1921 198,0 171,19 373,-140 290,-228 20,-422 -30,-438 -48,-15 -103,-16 -157,-35 -383,-133 -607,-716 -711,-1082 -46,-163 -136,-477 -136,-653 184,-4 839,-266 981,-341 0,-453 -133,-884 -299,-1173 -44,-75 -87,-147 -143,-220 -62,-84 -110,-130 -173,-211l-402 -346c-88,-61 -52,-35 -282,10 -193,38 -337,28 -451,275 -111,238 -171,694 -171,960 0,109 23,254 -10,353 -22,65 -139,199 -139,245z"/>
  <path class="fil0" d="M8493 19003c127,0 640,-160 640,-277 0,-211 -10,-176 -150,-385 -228,0 -471,46 -684,64 -113,9 -250,-29 -318,-64 -34,-18 -80,-52 -113,-79l-56 -51c-302,-290 -429,-859 -429,-1363 0,-269 32,-507 65,-746l127 -684c130,30 322,302 391,420l200 419c53,142 4,121 284,121 261,0 555,-110 555,-363 0,-169 -397,-731 -528,-880 -100,-113 -612,-613 -795,-613 -321,0 -481,113 -647,335 -134,179 -221,403 -284,655 -124,498 -150,953 -157,1465 -3,260 -58,21 19,385 16,74 29,124 43,191 28,137 59,258 85,385 171,835 982,1065 1752,1065z"/>
  <path class="fil0" d="M3563 11684c0,580 36,474 155,1040 184,874 963,1072 1766,1072 183,0 329,-90 488,-152 149,-57 131,-44 131,-232 0,-85 -90,-183 -128,-256 -564,0 -866,207 -1223,-165 -301,-314 -399,-891 -399,-1329 0,-269 32,-507 65,-746l127 -705c89,24 150,110 204,180 143,182 396,555 415,780 216,0 375,15 536,-39 459,-153 231,-498 44,-776l-300 -404c-98,-123 -629,-616 -792,-616 -536,0 -757,409 -899,872 -116,375 -190,982 -190,1476z"/>
  <path class="fil0" d="M8215 21585l1729 -21c607,0 1158,21 1750,21 318,0 558,22 875,21 157,-1 251,23 426,22l1698 94c112,17 309,31 415,34l1622 170c41,-85 146,-416 149,-533 -325,-156 -2887,-235 -3137,-235 -121,0 -242,1 -363,0 -149,-1 -213,21 -340,22 -281,4 -805,-1 -1088,22 -121,10 -214,18 -365,19 -120,2 -199,19 -341,22 -97,2 -91,15 -172,21 -174,13 -337,4 -523,31l-1034 97c-439,30 -789,108 -1156,146 -114,12 -119,27 -145,47z"/>
  <path class="fil0" d="M6956 21180c-26,-99 -426,-586 -527,-711l-829 -942c-140,-180 -333,-346 -495,-508 -172,-172 -328,-331 -501,-502 -53,-52 -76,-60 -128,-106l-1468 -1307c-117,31 -301,229 -389,314 -58,57 -94,65 -101,155 74,20 231,145 298,192 796,561 1654,1231 2405,1863 50,42 94,76 140,117l1195 1066c119,119 270,281 400,369z"/>
  <path class="fil0" d="M5036 15610c-22,-35 -16,49 -27,-60 -6,-65 -42,-24 27,-47l0 107zm-43 -171c-8,-40 27,-76 14,-13 -1,1 0,88 -14,13zm43 171l85 192c138,0 208,5 320,-21 0,-123 18,-749 171,-790 0,154 85,777 197,891 99,101 171,8 294,5 0,-124 -181,-933 -223,-1058 -116,-344 -530,-320 -652,205 -3,-5 -6,-18 -7,-15 -14,46 1,-10 -30,-76 -58,-124 -146,-172 -300,-137 -221,49 -23,8 -218,-8 -262,-22 -227,91 -191,189 54,147 159,537 170,687 11,165 40,157 106,256 173,0 158,-36 278,-64l0 -256z"/>
  <path class="fil0" d="M3393 14692c3,138 55,267 88,381 19,64 16,124 30,205 45,253 136,759 415,759 249,0 416,82 406,-663 -1,-136 -23,-238 -22,-404 3,-497 -167,-306 -341,-214 3,148 42,267 42,449l-21 469c-178,-130 -235,-770 -235,-1003 -85,-57 -26,-64 -170,-64 -81,0 -143,52 -192,85z"/>
  <polyline class="fil1" points="6956,21201 6981,21183 6956,21180 "/>
 </g>
</svg>
