<?xml version="1.0" encoding="UTF-8"?>
<!DOCTYPE svg PUBLIC "-//W3C//DTD SVG 1.1//EN" "http://www.w3.org/Graphics/SVG/1.1/DTD/svg11.dtd">
<!-- Creator: CorelDRAW X8 -->
<svg xmlns="http://www.w3.org/2000/svg" xml:space="preserve" version="1.1" style="shape-rendering:geometricPrecision; text-rendering:geometricPrecision; image-rendering:optimizeQuality; fill-rule:evenodd; clip-rule:evenodd"
viewBox="0 0 21000 29700"
 xmlns:xlink="http://www.w3.org/1999/xlink">
 <defs>
  <style type="text/css">
   <![CDATA[
    .fil0 {fill:#010103}
   ]]>
  </style>
 </defs>
 <g id="Camada_x0020_1">
  <metadata id="CorelCorpID_0Corel-Layer"/>
  <g id="_2448021564144">
   <path class="fil0" d="M2701 9409l0 98 689 226c232,78 466,164 699,241 462,154 922,311 1378,476 704,255 1743,563 2415,823 121,47 219,87 341,129l5529 1888c193,0 541,-110 732,-158l2151 -545c477,-135 949,-249 1434,-370l1444 -361c-25,-22 -7,-13 -58,-41l-959 -326c-722,-295 -1962,-648 -2777,-957l-4874 -1677c-130,-45 -226,-73 -349,-121l-1401 -478c-807,-264 -491,-277 -1056,-160l-1071 264c-251,57 -470,124 -707,183 -236,59 -493,111 -722,168 -240,61 -452,119 -687,178l-2151 520z"/>
   <path class="fil0" d="M12417 19446c0,-348 -10,-819 64,-1140 11,-42 30,-66 114,-42 252,70 319,153 317,465 -1,322 24,550 24,866 0,182 33,1112 -148,1112 -286,0 -347,-181 -347,-469 1,-276 -24,-495 -24,-792zm-840 -321c0,123 -3,249 -1,372l74 1062c80,469 274,710 643,890 521,255 754,207 1148,360 294,114 278,124 593,45l5479 -1369c-65,-89 -551,-223 -593,-223l-668 148c-1080,286 -2233,552 -3328,826 -239,60 -429,119 -667,173l-678 163c38,-161 116,-143 149,-543 19,-222 24,-436 24,-693l5761 -1434c-65,-88 -551,-222 -593,-222l-649 143c-214,55 -403,112 -627,163l-3867 955 -25 -667c1,-114 5,-236 1,-348 -4,-128 -25,-168 -25,-320 114,-3 165,-41 272,-50l0 -395c-131,10 -249,64 -371,74 -47,-566 -1073,-915 -1583,-915 -151,0 -268,147 -320,248 -152,294 -149,1193 -149,1557z"/>
   <path class="fil0" d="M13555 14032l0 -594c-135,-71 -283,-100 -443,-151 -144,-46 -293,-98 -444,-148 -145,-48 -293,-98 -445,-149 -108,-36 -359,-135 -473,-145l0 4005c156,83 889,304 1109,374l822 293c150,48 170,-12 319,-24l0 -395c-143,11 -313,68 -445,98l0 -642c-118,-57 -318,-111 -461,-158 -84,-28 -148,-42 -229,-68 -75,-24 -157,-63 -250,-71l0 -766c106,50 277,96 405,139 845,281 551,308 1252,132 582,-145 1149,-287 1740,-435 140,-35 3353,-863 3501,-875 -65,-88 -551,-222 -593,-222 -114,0 -1851,446 -2008,489l-1350 331c-211,53 -465,110 -677,164l-1011 250c-114,23 -237,67 -344,76l0 -569 -914 -300 -1 -689c136,32 271,87 411,133 843,279 509,324 1246,139l5241 -1310c-57,-78 -162,-91 -269,-127 -422,-140 -260,-110 -652,-27 -728,153 -1601,421 -2361,580 -213,45 -435,114 -649,167l-2027 495z"/>
   <path class="fil0" d="M7003 15293c91,7 683,207 766,247l0 -2151c64,47 106,199 138,282l714 1858c32,82 106,252 112,332 170,14 293,120 470,124l0 -3956c0,-88 -213,-129 -367,-176 -96,-29 -331,-113 -424,-120l0 1384c-3,-5 -8,-19 -9,-16 -1,4 -7,-12 -9,-15 -2,-5 -13,-27 -16,-34 -14,-34 -12,-36 -25,-74l-377 -1057c-148,-450 -122,-388 -352,-464 -134,-44 -489,-183 -621,-194l0 4030z"/>
   <path class="fil0" d="M6953 19644c92,8 684,207 767,247l0 -2151c73,85 243,581 289,700l559 1444c50,129 82,290 158,337 37,23 347,111 403,115l0 -4005c-83,-40 -675,-240 -766,-247l0 1384c-58,-66 -199,-510 -226,-590l-320 -891c-57,-167 -169,-164 -539,-277 -97,-30 -226,-73 -325,-96l0 4030z"/>
   <path class="fil0" d="M5396 13438c0,-448 -39,-1498 49,-1879 147,-34 348,39 393,177 88,268 60,1678 30,2026 -9,106 3,245 -101,245 -129,0 -281,-66 -320,-150 -31,-67 -51,-310 -51,-419zm-841 -1705c0,495 -36,1796 73,2226 50,197 146,427 292,573 276,276 972,489 1341,489 599,0 470,-1688 470,-2201 0,-1002 -28,-1668 -830,-1988 -344,-138 -542,-212 -901,-212 -418,0 -445,805 -445,1113z"/>
   <path class="fil0" d="M5717 18358c-310,0 -371,-184 -371,-469 0,-477 -44,-1574 50,-1978 278,0 402,62 420,322 33,485 40,1243 1,1731 -10,136 35,394 -100,394zm-1211 -2299c0,583 -46,1777 83,2290 54,213 168,438 306,560 210,186 873,463 1267,463 588,0 519,-1219 519,-1755 0,-690 65,-1831 -479,-2240 -115,-87 -216,-125 -336,-183 -253,-123 -589,-223 -915,-223 -200,0 -327,233 -372,395 -50,179 -73,461 -73,693z"/>
   <path class="fil0" d="M17832 15367l-346 1483c-101,-432 -196,-878 -297,-1310 -126,3 -580,135 -762,178 -73,17 -202,23 -202,119l0 3065c0,121 120,51 301,5 131,-32 239,-49 341,-104l40 -1770 455 1672c49,-24 228,-69 297,-75 78,-335 159,-691 242,-1018l222 -940c25,-79 -15,38 14,-36l16 1846c221,0 410,-119 618,-124l0 -3214c-124,3 -758,181 -939,223z"/>
   <path class="fil0" d="M2108 16781c18,413 67,798 181,1026 180,361 346,436 740,594 281,112 697,267 979,102 77,-45 129,-114 167,-203 99,-236 84,-717 84,-1005 0,-150 -87,-131 -350,-219 -132,-44 -328,-97 -442,-152 0,143 -3,247 -17,354 -32,252 18,289 -180,289 -316,0 -322,-325 -322,-568l0 -1484c0,-174 4,-190 16,-332 21,-112 149,-60 194,-52 335,55 285,314 285,805 129,30 264,84 392,126 96,32 293,112 399,121 0,-135 25,-171 25,-272 0,-825 -119,-1286 -930,-1568 -918,-318 -1221,-266 -1221,999l0 1439z"/>
   <path class="fil0" d="M2157 10991c0,822 -109,2190 331,2710 218,256 1006,529 1276,529 637,0 544,-770 544,-1335 0,-91 -196,-120 -368,-177 -118,-39 -315,-93 -423,-145 0,150 41,643 -148,643 -369,0 -371,-281 -371,-618 0,-231 -30,-1604 39,-1766 72,-171 382,-15 425,139 46,161 30,413 30,613 204,48 649,236 791,247 2,-97 25,-108 25,-296 0,-909 -193,-1275 -912,-1536 -946,-343 -1239,-252 -1239,992z"/>
   <path class="fil0" d="M15335 15960l0 2275c0,271 -73,325 -322,346 -25,-49 -49,-73 -49,-148l0 -2349c-230,0 -473,130 -692,148l3 2593c43,414 199,522 491,522 288,0 749,-152 916,-271 239,-169 305,-576 320,-866 40,-753 0,-1631 0,-2398 -209,17 -459,144 -667,148z"/>
   <path class="fil0" d="M9352 17221c0,89 147,108 296,148 107,30 239,90 346,99l0 3190c93,7 754,230 841,272l0 -3165c186,43 471,184 643,198l0 -841c-157,-82 -2003,-689 -2126,-692l0 791z"/>
   <path class="fil0" d="M9426 12919c76,37 530,191 618,198l0 3189c93,8 754,231 840,272l0 -3164c224,52 431,148 643,198l0 -866 -2103 -688 2 861z"/>
   <path class="fil0" d="M19093 16207c121,-28 298,-88 420,-98 -59,-80 -179,-96 -289,-135 -184,-66 -131,16 -131,233z"/>
   <path class="fil0" d="M19093 17271c121,-29 298,-89 420,-99 -59,-80 -179,-96 -289,-135 -184,-66 -131,16 -131,234z"/>
  </g>
 </g>
</svg>
