<?xml version="1.0" encoding="UTF-8" standalone="no"?>
<!-- Creator: CorelDRAW X8 -->

<svg
   xmlns:dc="http://purl.org/dc/elements/1.1/"
   xmlns:cc="http://creativecommons.org/ns#"
   xmlns:rdf="http://www.w3.org/1999/02/22-rdf-syntax-ns#"
   xmlns:svg="http://www.w3.org/2000/svg"
   xmlns="http://www.w3.org/2000/svg"
   xmlns:sodipodi="http://sodipodi.sourceforge.net/DTD/sodipodi-0.dtd"
   xmlns:inkscape="http://www.inkscape.org/namespaces/inkscape"
   xml:space="preserve"
   version="1.1"
   style="clip-rule:evenodd;fill-rule:evenodd;image-rendering:optimizeQuality;shape-rendering:geometricPrecision;text-rendering:geometricPrecision"
   viewBox="0 0 20294 6167.5654"
   id="svg2"
   inkscape:version="0.91 r"
   sodipodi:docname="logo_conteumconto_v02.svg"><metadata
     id="metadata23"><rdf:RDF><cc:Work
         rdf:about=""><dc:format>image/svg+xml</dc:format><dc:type
           rdf:resource="http://purl.org/dc/dcmitype/StillImage" /><dc:title></dc:title></cc:Work></rdf:RDF></metadata><sodipodi:namedview
     pagecolor="#ffffff"
     bordercolor="#666666"
     borderopacity="1"
     objecttolerance="10"
     gridtolerance="10"
     guidetolerance="10"
     inkscape:pageopacity="0"
     inkscape:pageshadow="2"
     inkscape:window-width="1366"
     inkscape:window-height="744"
     id="namedview21"
     showgrid="false"
     fit-margin-top="0"
     fit-margin-left="0"
     fit-margin-right="0"
     fit-margin-bottom="0"
     inkscape:zoom="0.029340895"
     inkscape:cx="10161"
     inkscape:cy="7508.4013"
     inkscape:window-x="0"
     inkscape:window-y="24"
     inkscape:window-maximized="1"
     inkscape:current-layer="svg2" /><defs
     id="defs4"><style
       type="text/css"
       id="style6"><![CDATA[
    .fil0 {fill:white}
   ]]></style></defs><g
     id="Camada_x0020_1"
     style="fill:#ffffff"
     transform="translate(-339,-11259)"><metadata
       id="CorelCorpID_0Corel-Layer" /><g
       id="_2448023860944"
       style="fill:#ffffff"><path
         class="fil0"
         d="m 7710,14683 0,0 z m -3117,348 c -42,-181 331,-840 535,-976 0,165 49,295 148,361 -112,166 -481,615 -683,615 z m 2596,-1351 4,4 c -1,0 -6,-3 -4,-4 z m -1766,549 -27,0 c -23,-98 -79,-109 -2,-323 22,-62 34,-96 84,-130 101,-69 262,-139 279,-163 -31,-42 -94,-61 -160,-67 41,-61 97,-116 150,-170 34,-34 45,-46 84,-77 42,-32 46,-45 113,-47 -54,234 -509,931 -521,977 z m 2287,454 c -4,52 -26,99 -40,148 -26,94 -68,195 -78,296 -18,163 -24,348 70,474 84,114 154,96 249,32 0,-258 -30,-258 35,-540 40,-176 88,-314 144,-471 192,-538 491,-1141 813,-1621 45,-66 444,-693 520,-712 61,5 158,29 222,45 116,30 109,51 192,-5 0,-106 -35,-101 -120,-121 -70,-16 -131,-36 -201,-53 20,-29 26,-31 50,-57 39,-42 140,-142 151,-184 -70,-103 -447,-90 -522,0 -45,52 -86,160 -161,173 -85,15 -233,-8 -330,5 -110,14 -772,95 -854,136 -81,40 -14,222 7,262 58,-2 203,-49 256,-66 285,-87 503,-175 828,-175 -49,73 -97,139 -145,216 -139,225 -287,451 -413,684 l -507,951 c -119,180 -255,342 -385,511 -33,42 -60,55 -98,89 -49,44 -221,176 -173,-38 30,-130 152,-382 210,-513 l 173,-375 c 121,-273 264,-590 491,-780 234,-196 33,-283 -184,-330 -126,-27 -173,-12 -246,87 -55,76 -103,128 -160,201 -58,74 -111,134 -171,203 -31,35 -49,59 -81,94 l -322,400 c -29,40 -49,71 -78,109 -157,212 -282,454 -417,680 -56,95 -215,414 -277,459 79,-339 360,-885 518,-1195 104,-207 227,-414 363,-599 119,-161 238,-230 42,-332 -72,-37 -231,-102 -310,-71 -41,16 -206,331 -234,383 -95,177 -194,359 -270,546 -21,54 -38,84 -64,136 -96,191 -162,357 -361,468 -56,31 -100,38 -152,63 15,-57 129,-200 163,-252 59,-87 107,-165 159,-256 96,-167 461,-755 26,-790 -138,-11 -252,29 -343,71 -94,44 -178,99 -238,177 -35,45 -61,73 -93,121 -25,36 -66,99 -75,139 l -107,-27 c -73,-17 -100,44 -153,89 -386,326 -548,835 -666,952 l -328,354 c -152,153 -410,387 -583,515 -395,292 -1447,1086 -1805,515 -196,-314 -51,-771 88,-1082 31,-69 63,-133 87,-194 28,-68 54,-116 87,-181 117,-234 253,-467 408,-675 l 474,-610 c 23,-27 42,-41 67,-67 32,-33 36,-48 66,-81 100,-107 289,-305 402,-400 33,-27 42,-29 74,-61 253,-253 560,-456 856,-655 138,-92 479,-302 497,5 11,195 -279,584 -374,707 l -371,431 c -135,135 -270,295 -434,396 -185,115 -192,-198 -332,-131 -48,100 33,279 78,337 75,96 219,111 332,85 309,-69 763,-545 1005,-787 42,-42 64,-62 103,-111 21,-28 29,-32 51,-56 24,-27 28,-38 53,-67 211,-236 717,-883 360,-1169 -153,-123 -443,-207 -641,-255 -308,-75 -598,65 -854,222 -47,29 -98,59 -139,88 -414,293 -763,636 -1100,1014 -467,523 -981,1399 -1203,2061 -135,405 -214,887 -2,1304 25,50 71,93 84,143 -68,-33 -182,-53 -263,-84 -46,-18 -80,-30 -130,-44 -156,-45 -501,-182 -637,-247 9,75 -16,10 36,59 88,84 190,149 291,217 l 253,148 c 319,173 690,280 1042,363 510,120 1153,100 1696,-38 204,-51 412,-119 606,-196 55,-23 88,-40 139,-62 52,-22 91,-35 143,-57 200,-84 397,-180 624,-180 -86,162 -316,397 -188,589 194,0 377,-165 551,-252 46,-23 139,-72 185,-82 -37,77 -67,221 -91,310 -97,355 447,-230 747,-230 -6,64 -79,171 -113,222 -49,74 -87,121 -133,201 -97,173 -69,398 196,330 249,-65 618,-334 842,-495 37,-26 58,-38 96,-65 l 500,-343 c 206,-137 413,-260 638,-365 l 346,-149 c 50,-19 78,-33 129,-45 -4,52 -17,69 -34,113 -150,381 -126,361 -332,738 -110,202 -413,565 -434,798 -20,220 220,215 461,-49 2,-2 4,-5 6,-7 2,-2 5,-5 7,-7 l 146,-147 c 3,-3 12,-10 15,-13 12,-10 10,-9 21,-19 113,-104 218,-183 371,-244 54,-21 187,-64 244,-43 68,26 78,138 78,231 67,-18 95,-120 93,-187 -8,-258 -326,-223 -541,-60 -319,243 -288,275 -690,488 72,-307 335,-755 511,-1014 l 180,-263 c 32,-49 57,-95 85,-142 73,-125 127,-330 -31,-410 -229,-115 -784,406 -1004,553 -268,178 -539,348 -822,502 -212,115 -730,412 -898,426 37,-162 249,-408 192,-580 -26,-79 -101,-89 -181,-65 -85,25 -112,47 -176,93 -155,112 -307,234 -477,325 7,-88 293,-534 84,-517 -115,10 -416,297 -615,362 -75,24 -101,26 -64,-50 64,-134 314,-417 243,-527 -56,-86 -230,-20 -306,7 -196,72 -378,138 -582,208 -472,160 -791,249 -1329,249 -130,0 -283,0 -367,-9 -63,-7 -134,-10 -184,-16 -65,-7 -125,-15 -185,-15 59,-37 293,-84 549,-254 163,-109 326,-218 481,-335 230,-172 456,-355 659,-558 57,-57 152,-165 211,-204 46,95 53,255 270,291 316,52 540,-231 723,-421 86,-89 195,-219 251,-325 52,1 65,16 119,13 28,-1 81,-12 116,-19 101,-19 133,-57 206,-74 -45,93 -125,508 -70,632 32,75 278,381 405,344 84,-24 108,-283 183,-472 150,-376 368,-710 587,-1045 31,-48 105,-170 140,-195 -11,47 -28,94 -46,141 -20,51 -31,88 -50,138 -115,309 -241,567 -148,915 25,95 76,177 139,235 122,112 367,-146 445,-246 43,-57 124,-168 181,-207 z"
         id="path11"
         style="fill:#ffffff"
         inkscape:connector-curvature="0" /><path
         class="fil0"
         d="m 16365,14884 0,0 z m -1839,-3625 124,0 c 115,12 229,58 413,112 609,178 580,488 275,961 l -481,602 c -41,41 -51,56 -88,100 l -186,175 c -101,100 -279,243 -389,333 -609,497 -847,-56 -745,-250 152,13 159,263 335,134 252,-185 603,-569 802,-829 93,-121 389,-513 360,-721 -26,-194 -230,-136 -346,-68 -195,113 -468,298 -644,439 l -291,245 c -125,99 -471,428 -552,531 l -715,917 c -71,117 -130,216 -201,334 -114,191 -272,554 -348,749 -235,613 -98,1336 794,981 409,-163 822,-459 1158,-741 l 292,-257 c 65,-51 476,-476 520,-563 138,-270 231,-427 414,-669 l 124,-144 c 31,-31 43,-29 74,-60 38,-38 19,-38 64,-70 51,-37 136,-21 193,6 16,-60 122,-205 164,-251 311,-334 780,-331 800,-69 14,182 -164,469 -232,597 -26,48 -52,87 -82,133 l -201,307 c -26,36 -22,14 -34,59 182,-15 386,-245 446,-384 123,-286 254,-558 401,-829 25,-45 48,-84 74,-127 57,-96 102,-228 170,-245 58,-14 337,47 407,181 -41,77 -110,156 -160,227 -253,360 -358,595 -549,976 l -229,521 c -21,58 -90,219 -92,282 53,-39 171,-275 214,-348 192,-335 410,-724 653,-1019 l 509,-615 c 122,-149 174,-263 306,-249 70,7 160,33 222,60 298,127 35,246 -73,363 -220,239 -632,1214 -747,1500 -157,391 155,149 334,-80 252,-322 377,-474 535,-829 107,-239 338,-653 468,-870 57,-96 114,-190 174,-281 56,-83 128,-179 174,-267 -437,0 -919,237 -1083,241 -24,-46 -44,-101 -42,-175 3,-98 35,-91 112,-103 130,-20 238,-39 367,-61 358,-59 403,-63 780,-63 28,-53 63,-87 101,-139 82,-113 165,-104 354,-102 104,1 115,24 187,41 0,90 -31,92 -83,143 -51,51 -65,66 -104,124 59,14 112,32 179,48 75,18 107,20 142,73 -11,134 -90,82 -182,61 -75,-17 -184,-48 -259,-48 -107,159 -228,301 -338,465 -213,321 -426,660 -599,1006 -209,419 -465,996 -545,1449 -49,280 62,444 -100,476 -67,13 -112,-23 -141,-55 -226,-253 -10,-759 37,-960 -20,14 -76,84 -94,107 -84,108 -377,482 -538,364 -66,-48 -116,-151 -141,-233 -84,-271 -31,-402 46,-631 25,-76 187,-509 192,-570 l -198,297 c -220,351 -517,791 -608,1198 -26,118 -4,150 -104,217 -146,-3 -354,-240 -401,-347 -56,-127 32,-556 67,-629 -73,17 -106,55 -206,74 -196,39 -132,8 -236,6 -11,42 -30,60 -56,91 -66,77 -112,152 -194,233 -88,87 -193,207 -283,280 -364,295 -692,104 -697,-149 -55,14 -40,34 -117,110 -44,44 -76,62 -121,107 -324,328 -887,743 -1266,968 -92,54 -201,94 -310,131 -353,117 -775,132 -1046,-142 -440,-446 -231,-1256 -28,-1748 l 132,-309 13,-27 14,-27 69,-117 c 26,-43 41,-82 65,-123 271,-468 403,-671 735,-1097 l 620,-665 c 41,-35 53,-42 92,-81 l 198,-164 c 203,-159 431,-322 669,-428 145,-65 250,-97 341,-107 z m 301,3772 -40,0 c 0,-215 126,-391 214,-562 68,-132 204,-336 321,-414 0,152 56,300 147,361 -86,129 -487,615 -642,615 z m 1070,-749 0,0 z m 1485,-575 0,0 z m -1766,522 -27,0 c -27,-118 -76,-192 31,-398 37,-73 236,-169 331,-191 -6,-64 -53,-86 -148,-94 13,-47 30,-46 62,-86 56,-71 177,-206 273,-208 -8,95 -192,422 -242,508 l -210,351 c -26,38 -58,72 -70,118 z"
         id="path13"
         style="fill:#ffffff"
         inkscape:connector-curvature="0" /><path
         class="fil0"
         d="m 18800,15031 -40,0 c 0,-202 115,-386 218,-571 77,-137 195,-324 317,-405 0,154 56,300 147,361 -86,129 -487,615 -642,615 z m 1833,-1410 0,62 c -9,55 -38,134 -98,247 -25,45 -52,95 -79,136 -63,98 -106,158 -188,240 -82,81 -140,127 -251,177 -154,69 -249,42 -348,40 -15,57 -224,299 -264,338 -191,189 -445,514 -771,390 -161,-61 -226,-248 -206,-390 31,-223 266,-623 385,-820 102,-171 147,-209 256,-346 52,-63 94,-99 157,-151 52,-43 142,-80 229,-38 35,-130 235,-355 397,-433 88,-42 208,-82 339,-76 548,29 -60,893 -243,1162 -29,43 -64,70 -78,123 97,-8 222,-94 278,-150 35,-35 66,-78 94,-120 32,-47 55,-78 88,-126 l 161,-267 c 40,-45 125,-70 142,2 z m -763,661 0,0 z m -281,-53 -27,0 c -22,-98 -74,-113 -4,-312 21,-59 32,-102 79,-136 79,-58 180,-116 287,-141 -7,-78 -84,-92 -161,-94 61,-91 234,-291 348,-294 -10,122 -293,597 -381,743 l -141,234 z"
         id="path15"
         style="fill:#ffffff"
         inkscape:connector-curvature="0" /><path
         class="fil0"
         d="m 9369,13934 c -124,0 -67,-48 -8,-128 66,-87 299,-371 396,-393 -10,122 -88,188 -164,290 -34,45 -174,231 -224,231 z m -749,549 c 0,254 154,551 394,636 108,39 288,-24 377,-65 118,-55 207,-119 301,-195 162,-130 328,-350 448,-529 76,-115 339,-536 339,-663 0,-81 -87,-164 -165,-5 -68,138 -99,208 -191,345 -182,272 -622,785 -962,844 -308,54 -159,-384 -111,-513 17,-48 40,-105 65,-149 21,-36 69,-106 80,-148 89,24 193,258 372,91 109,-102 444,-530 444,-653 0,-289 -474,-462 -692,-277 -144,123 -434,482 -525,665 -78,157 -174,385 -174,616 z"
         id="path17"
         style="fill:#ffffff"
         inkscape:connector-curvature="0" /><path
         class="fil0"
         d="m 11188,14269 -7,29 7,-29 z m -254,0 -7,29 7,-29 z m 14,-27 -14,27 14,-27 z m 187,-161 -14,27 14,-27 z m 0,0 0,0 z m 281,-53 4,4 c -1,0 -6,-3 -4,-4 z m -468,214 c 4,-58 133,-302 168,-353 29,-43 59,-64 72,-115 -45,-24 -62,-40 -133,-40 -11,45 -98,185 -134,267 -36,83 -102,191 -201,214 28,-57 101,-274 228,-307 l 0,-41 c -206,-47 -177,49 -318,191 -32,32 -34,40 -61,73 -22,26 -42,44 -66,68 -60,58 -94,112 -131,137 4,-167 245,-405 257,-430 38,-81 -86,-54 -125,-28 -56,37 -264,305 -253,431 6,69 62,105 135,107 49,-33 76,-75 114,-126 29,-38 84,-120 113,-142 0,236 103,168 214,94 0,65 -28,103 4,156 26,42 53,70 117,71 17,-36 18,-56 32,-100 27,-83 89,-201 141,-261 -10,119 -104,213 -17,312 31,36 37,48 98,49 21,-43 32,-131 85,-222 29,-49 94,-167 129,-192 -27,115 -116,195 -14,348 100,-3 128,-71 177,-131 40,-48 93,-149 131,-177 l 13,-27 14,-27 c 5,-60 20,-35 -2,-58 -39,-40 -45,35 -115,129 -46,63 -100,163 -178,184 4,-47 88,-229 112,-277 24,-49 40,-86 70,-131 31,-45 72,-60 86,-114 -26,-36 -60,-52 -120,-54 -42,13 -300,379 -356,474 -9,16 -12,23 -19,35 l -27,40 c 12,-138 246,-465 254,-495 -48,-32 -56,-29 -107,-54 l -206,249 c -87,114 -95,151 -152,236 -2,2 -4,5 -5,8 l -24,29 z"
         id="path19"
         style="fill:#ffffff"
         inkscape:connector-curvature="0" /></g></g></svg>